<?xml version="1.0" standalone="no"?>
<!DOCTYPE svg PUBLIC "-//W3C//DTD SVG 20010904//EN"
 "http://www.w3.org/TR/2001/REC-SVG-20010904/DTD/svg10.dtd">
<svg version="1.0" xmlns="http://www.w3.org/2000/svg"
 width="730.000000pt" height="730.000000pt" viewBox="0 0 730.000000 730.000000"
 preserveAspectRatio="xMidYMid meet">
<metadata>
Created by potrace 1.14, written by Peter Selinger 2001-2017
</metadata>
<g transform="translate(0.000000,730.000000) scale(0.100000,-0.100000)"
fill="#000000" stroke="none">
<path d="M1683 6833 c-90 -15 -217 -55 -286 -90 -103 -52 -242 -152 -299 -216
l-21 -24 -41 40 c-40 38 -113 81 -171 99 -16 6 -68 11 -115 13 -69 3 -98 -1
-155 -20 -73 -24 -90 -24 -80 2 4 13 3 14 -10 3 -8 -7 -15 -19 -15 -27 0 -10
-6 -13 -15 -9 -20 8 -42 14 -32 9 18 -11 3 -30 -40 -53 -152 -80 -205 -216
-158 -412 25 -108 111 -288 137 -288 11 0 10 -78 -1 -85 -6 -3 -9 -13 -9 -23
2 -25 -42 -152 -62 -182 -34 -50 -81 -161 -100 -237 -18 -71 -20 -125 -23
-618 -2 -297 -6 -551 -9 -565 -4 -14 -9 -45 -12 -70 -3 -25 -8 -56 -11 -70 -2
-13 -7 -42 -11 -65 -3 -22 -19 -103 -35 -180 -17 -77 -33 -151 -35 -164 -3
-14 -14 -61 -24 -105 -20 -89 -17 -101 31 -111 18 -4 29 -13 29 -23 1 -45 13
-105 37 -182 26 -85 26 -85 24 -396 -3 -390 -8 -623 -14 -649 -3 -11 -8 -58
-12 -105 -4 -47 -8 -92 -10 -100 -1 -8 -6 -51 -10 -94 -4 -43 -8 -86 -10 -95
-1 -9 -6 -52 -10 -95 -4 -43 -8 -86 -10 -95 -1 -9 -6 -52 -9 -96 -4 -44 -9
-91 -11 -105 -2 -14 -6 -54 -10 -90 -3 -36 -8 -81 -10 -100 -2 -19 -7 -62 -10
-95 -5 -59 -12 -121 -20 -180 -2 -16 -7 -66 -10 -110 -4 -44 -9 -83 -11 -86
-2 -4 2 -9 10 -12 10 -4 13 -31 12 -116 l-2 -111 121 0 c78 0 125 4 133 12 8
8 15 8 26 -1 11 -10 122 -13 458 -13 l443 0 -3 33 c-5 48 -31 98 -60 117 -18
12 -53 16 -143 18 -66 1 -122 4 -125 7 -3 2 -7 85 -9 183 -21 1032 -24 1470
-12 1764 4 102 10 255 13 340 3 85 7 200 9 255 2 55 4 121 4 146 1 43 3 47 29
52 l29 6 1 273 c0 338 0 328 12 328 5 0 83 45 174 100 163 100 165 101 218 96
29 -3 89 -8 133 -11 96 -7 171 -13 245 -20 30 -3 96 -7 145 -10 125 -8 120 -7
162 -52 39 -42 100 -107 333 -353 76 -80 152 -161 170 -180 46 -50 309 -327
348 -367 l33 -33 83 88 c46 48 99 104 118 124 33 35 251 265 444 467 50 53
111 117 135 142 24 26 111 117 193 203 l149 156 41 -5 c118 -15 282 -26 451
-29 111 -2 136 0 168 16 l39 19 36 -26 c108 -76 146 -111 148 -135 0 -14 4
-54 8 -90 6 -62 16 -181 19 -226 1 -12 -14 -40 -35 -63 -43 -49 -65 -78 -118
-151 -22 -30 -44 -59 -48 -65 -82 -107 -261 -441 -352 -655 -108 -255 -231
-656 -276 -900 -3 -14 -12 -58 -20 -99 -8 -40 -17 -87 -18 -105 -2 -17 -6 -47
-10 -66 -6 -35 -8 -53 -26 -180 -5 -36 -12 -105 -15 -155 -4 -49 -9 -98 -11
-108 -2 -10 -6 -105 -10 -210 -7 -187 -7 -224 -5 -259 1 -10 20 -25 47 -37 75
-33 275 -98 393 -127 61 -15 111 -31 111 -35 0 -21 -109 -79 -172 -93 -19 -4
-30 -15 -34 -33 -12 -45 13 -53 165 -53 164 0 187 11 249 112 15 23 29 35 40
33 9 -2 29 -4 45 -4 27 -1 27 -1 27 -71 0 -62 2 -70 19 -70 16 0 18 7 17 53
-3 77 -3 77 72 72 36 -3 67 -7 70 -9 2 -2 -14 -9 -35 -16 -76 -23 -93 -32 -93
-50 0 -41 23 -48 165 -49 154 -2 172 4 228 71 33 40 39 43 86 44 l51 0 0 -58
c0 -51 2 -58 20 -58 18 0 20 7 20 60 l0 60 43 1 c81 2 275 19 392 33 22 3 63
8 90 11 42 5 102 14 265 40 50 8 274 55 314 66 23 6 52 13 66 16 13 2 100 29
192 59 224 74 502 214 425 214 -28 0 -157 59 -226 104 -158 102 -252 240 -277
406 -10 64 -46 224 -71 315 -13 50 -26 100 -29 113 -10 49 -127 388 -170 495
-205 503 -401 809 -705 1102 -109 104 -225 194 -326 253 -71 41 -76 51 -77
152 0 124 29 304 88 538 71 277 50 465 -81 740 -34 72 -42 96 -33 107 8 10 7
16 -5 22 -25 15 -55 185 -40 232 6 19 8 18 35 -12 16 -18 30 -26 30 -19 0 6
-4 12 -8 12 -4 0 -16 15 -26 33 -10 17 -13 26 -5 20 21 -20 34 -15 16 5 -10
10 -14 21 -11 25 4 3 19 -11 34 -32 53 -73 159 -89 213 -31 15 16 32 30 37 30
5 0 17 13 26 29 10 17 27 32 40 35 54 14 78 119 43 188 -11 21 -23 38 -28 38
-5 0 -11 14 -15 31 -3 17 -15 42 -26 56 -11 14 -20 30 -20 35 0 11 -35 58 -41
55 -2 -1 2 4 10 11 11 8 11 12 2 12 -7 0 -10 4 -7 9 9 14 -20 21 -34 8 -10 -9
-11 -9 -5 2 6 11 4 13 -8 8 -9 -3 -18 -1 -21 6 -3 9 -7 8 -14 -2 -8 -11 -15
-4 -33 33 -30 64 -109 149 -172 184 -123 69 -256 71 -462 8 -16 -5 -27 4 -53
43 -19 27 -65 82 -104 121 -213 216 -484 324 -788 315 -119 -4 -132 -5 -239
-32 -345 -85 -641 -369 -744 -713 -14 -47 -27 -96 -29 -110 -4 -21 -6 -17 -16
20 -71 264 -165 418 -363 595 -87 76 -269 171 -399 206 -149 41 -300 48 -457
22z m4016 -903 c0 -10 -3 -8 -9 5 -12 27 -12 43 0 25 5 -8 9 -22 9 -30z m-67
-292 c-7 -7 -10 -5 -7 8 5 29 6 30 12 16 3 -8 1 -18 -5 -24z m-584 -140 c18
-90 10 -196 -20 -253 -24 -46 -78 -108 -92 -106 -19 3 -26 -1 -26 -14 0 -8
-26 -41 -57 -73 -117 -119 -116 -118 -117 -196 0 -44 5 -82 15 -101 15 -29 14
-31 -30 -85 -24 -30 -49 -54 -56 -54 -6 1 -51 27 -98 58 -48 31 -90 56 -95 56
-4 0 -13 5 -19 11 -8 8 19 42 97 122 259 270 298 318 359 442 33 66 73 173 87
233 2 6 12 12 22 12 15 0 22 -11 30 -52z m-4193 -58 c23 -70 84 -192 127 -251
18 -26 74 -89 123 -141 226 -237 370 -391 373 -399 2 -5 -4 -12 -13 -16 -10
-3 -55 -28 -102 -55 -46 -26 -89 -48 -96 -48 -7 0 -45 7 -85 17 l-73 17 -44
88 c-24 48 -62 116 -84 150 l-39 63 -5 130 c-5 137 -7 147 -34 235 -15 51 -84
194 -103 213 -4 5 -1 22 7 39 18 36 25 30 48 -42z m3598 -867 l84 -81 -169 0
c-93 0 -168 2 -166 4 2 1 37 39 78 83 41 45 77 80 81 79 4 -2 45 -40 92 -85z"/>
</g>
</svg>
